# xmcd
#
# Track frame offsets:
#	170
#	13691
#	31614
#	42568
#	56805
#	79116
#	100135
#	120455
#	137744
#	150348
#	165867
#	192878
#	208820
#	228701
#	245203
#
# Disc length: 3439 seconds
#
# Revision: 0
# Processed by: cddbd v1.5.2PL0 Copyright (c) Steve Scherf et al.
# Submitted via: dBpowerAMP V4.0
#
DISCID=c20d6d0f
DTITLE=Joe and Dave - Gone out woop woop
DYEAR=1900
DGENRE=
TTITLE0=I got Rhytm
TTITLE1=Dave the rave
TTITLE2=I want out
TTITLE3=From the bottle of my soul
TTITLE4=Sicilia
TTITLE5=Love me tender
TTITLE6=That train
TTITLE7=Everybody loves somebody
TTITLE8=Teach you to rock
TTITLE9=Dont let the sun catch you crying
TTITLE10=Boogie medley
TTITLE11=I wanna be loved by you
TTITLE12=Ghetto
TTITLE13=I cant stand the train
TTITLE14=She`d gone out woop woop
EXTD=
EXTT0=
EXTT1=
EXTT2=
EXTT3=
EXTT4=
EXTT5=
EXTT6=
EXTT7=
EXTT8=
EXTT9=
EXTT10=
EXTT11=
EXTT12=
EXTT13=
EXTT14=
PLAYORDER=
